<?xml version="1.0" encoding="UTF-8" standalone="no"?>
<!-- Created with Inkscape (http://www.inkscape.org/) -->

<svg
   xmlns:dc="http://purl.org/dc/elements/1.1/"
   xmlns:cc="http://creativecommons.org/ns#"
   xmlns:rdf="http://www.w3.org/1999/02/22-rdf-syntax-ns#"
   xmlns:svg="http://www.w3.org/2000/svg"
   xmlns="http://www.w3.org/2000/svg"
   xmlns:sodipodi="http://sodipodi.sourceforge.net/DTD/sodipodi-0.dtd"
   xmlns:inkscape="http://www.inkscape.org/namespaces/inkscape"
   width="8.598958mm"
   height="11.1125mm"
   viewBox="0 0 8.598958 11.1125"
   version="1.1"
   id="svg3810"
   inkscape:version="0.92.4 (5da689c313, 2019-01-14)"
   sodipodi:docname="ideal.svg">
  <defs
     id="defs3804" />
  <sodipodi:namedview
     id="base"
     pagecolor="#ffffff"
     bordercolor="#666666"
     borderopacity="1.0"
     inkscape:pageopacity="0.0"
     inkscape:pageshadow="2"
     inkscape:zoom="15.839192"
     inkscape:cx="41.557153"
     inkscape:cy="19.811486"
     inkscape:document-units="mm"
     inkscape:current-layer="g3822"
     showgrid="false"
     fit-margin-top="0"
     fit-margin-left="0"
     fit-margin-right="0"
     fit-margin-bottom="0"
     inkscape:window-width="1920"
     inkscape:window-height="1017"
     inkscape:window-x="-8"
     inkscape:window-y="1072"
     inkscape:window-maximized="1" />
  <metadata
     id="metadata3807">
    <rdf:RDF>
      <cc:Work
         rdf:about="">
        <dc:format>image/svg+xml</dc:format>
        <dc:type
           rdf:resource="http://purl.org/dc/dcmitype/StillImage" />
        <dc:title></dc:title>
      </cc:Work>
    </rdf:RDF>
  </metadata>
  <g
     inkscape:label="Layer 1"
     inkscape:groupmode="layer"
     id="layer1"
     transform="translate(27.356027,-143.27708)">
    <g
       id="g3822"
       transform="matrix(0.26458333,0,0,0.26458333,-27.356027,143.27708)">
      <path
         id="path3814"
         d="m 16,12 c -5.5,0.25 -9.75,4.75 -9.75,10 0,3 1.25,5.5 3.5,7.5 1,1 1.5,2.25 1.5,3.75 0,3.75 0,3.75 0,3.75 0,2.75 2.25,5 5,5 2.75,0 5,-2.25 5,-5 0,-3.75 0,-3.75 0,-3.75 0,-1.5 0.5,-2.75 1.75,-3.75 2,-2 3.25,-4.75 3.25,-7.5 0,-2.75 -1,-5.25 -3,-7.25 C 21.25,13 18.75,12 16,12 Z m 0.25,28 c -1.75,0 -3,-1.25 -3,-3 0,-2 0,-2 0,-2 6,0 6,0 6,0 0,2 0,2 0,2 0,1.75 -1.25,3 -3,3 z M 21.5,28 c -1.25,1.25 -2.25,3 -2.25,5 -6,0 -6,0 -6,0 0,-2 -1,-3.75 -2.25,-5 -1.75,-1.5 -2.75,-3.75 -2.75,-6 0,-4.25 3.5,-7.75 7.75,-8 h 0.25 c 2,0 4,0.75 5.5,2.25 1.75,1.5 2.5,3.5 2.5,5.75 0,2.25 -1,4.5 -2.75,6 z"
         inkscape:connector-curvature="0"
         style="fill:#0F5FDC" />
      <path
         id="path3816"
         d="m 17.25,0 h -2 v 8 h 2 z"
         inkscape:connector-curvature="0"
         style="fill:#0F5FDC" />
      <path
         id="path3818"
         d="m 31,5.75 -5.5,5.75 1.25,1.25 5.75,-5.5 z"
         inkscape:connector-curvature="0"
         style="fill:#0F5FDC" />
      <path
         id="path3820"
         d="M 1.5,5.75 0,7.25 5.75,12.75 7,11.5 Z"
         inkscape:connector-curvature="0"
         style="fill:#0F5FDC" />
    </g>
  </g>
</svg>
