<?xml version="1.0" encoding="UTF-8" standalone="no"?>
<!-- Created with Inkscape (http://www.inkscape.org/) -->

<svg
   xmlns:dc="http://purl.org/dc/elements/1.1/"
   xmlns:cc="http://creativecommons.org/ns#"
   xmlns:rdf="http://www.w3.org/1999/02/22-rdf-syntax-ns#"
   xmlns:svg="http://www.w3.org/2000/svg"
   xmlns="http://www.w3.org/2000/svg"
   xmlns:sodipodi="http://sodipodi.sourceforge.net/DTD/sodipodi-0.dtd"
   xmlns:inkscape="http://www.inkscape.org/namespaces/inkscape"
   width="11.1125mm"
   height="11.1125mm"
   viewBox="0 0 11.1125 11.1125"
   version="1.1"
   id="svg3810"
   inkscape:version="0.92.4 (5da689c313, 2019-01-14)"
   sodipodi:docname="information.svg">
  <defs
     id="defs3804" />
  <sodipodi:namedview
     id="base"
     pagecolor="#ffffff"
     bordercolor="#666666"
     borderopacity="1.0"
     inkscape:pageopacity="0.0"
     inkscape:pageshadow="2"
     inkscape:zoom="15.839192"
     inkscape:cx="32.274096"
     inkscape:cy="11.527244"
     inkscape:document-units="mm"
     inkscape:current-layer="g3908"
     showgrid="false"
     fit-margin-top="0"
     fit-margin-left="0"
     fit-margin-right="0"
     fit-margin-bottom="0"
     inkscape:window-width="1920"
     inkscape:window-height="1017"
     inkscape:window-x="-8"
     inkscape:window-y="1072"
     inkscape:window-maximized="1" />
  <metadata
     id="metadata3807">
    <rdf:RDF>
      <cc:Work
         rdf:about="">
        <dc:format>image/svg+xml</dc:format>
        <dc:type
           rdf:resource="http://purl.org/dc/dcmitype/StillImage" />
        <dc:title></dc:title>
      </cc:Work>
    </rdf:RDF>
  </metadata>
  <g
     inkscape:label="Layer 1"
     inkscape:groupmode="layer"
     id="layer1"
     transform="translate(24.899885,-141.08521)">
    <g
       id="g3822"
       transform="matrix(0.26458333,0,0,0.26458333,-27.356027,143.27708)">
      <g
         id="g3908"
         transform="translate(12.289714,-0.62115597)">
        <g
           id="g3931"
           transform="translate(-3.0066592,-7.663087)">
          <path
             id="path3925"
             d="M 21,42 C 9.5,42 0,32.5 0,21 0,9.5 9.5,0 21,0 32.5,0 42,9.5 42,21 42,32.5 32.5,42 21,42 Z M 21,2 C 10.5,2 2,10.5 2,21 2,31.5 10.5,40 21,40 31.5,40 40,31.5 40,21 40,10.5 31.5,2 21,2 Z"
             inkscape:connector-curvature="0"
             style="fill:#0F5FDC" />
          <g
             id="g3929">
            <path
               id="path3927"
               d="m 20.99,14.36 c -0.68,0 -1.25,-0.57 -1.25,-1.25 0,-0.7 0.57,-1.25 1.25,-1.25 0.7,0 1.27,0.55 1.27,1.25 0,0.68 -0.57,1.25 -1.27,1.25 z m 0.98,15.78 H 20.02 V 16.59 h 1.95 z"
               inkscape:connector-curvature="0"
               style="fill:#0F5FDC" />
          </g>
        </g>
      </g>
    </g>
  </g>
</svg>
