<?xml version="1.0" encoding="UTF-8" standalone="no"?>
<!-- Created with Inkscape (http://www.inkscape.org/) -->

<svg
   xmlns:dc="http://purl.org/dc/elements/1.1/"
   xmlns:cc="http://creativecommons.org/ns#"
   xmlns:rdf="http://www.w3.org/1999/02/22-rdf-syntax-ns#"
   xmlns:svg="http://www.w3.org/2000/svg"
   xmlns="http://www.w3.org/2000/svg"
   xmlns:sodipodi="http://sodipodi.sourceforge.net/DTD/sodipodi-0.dtd"
   xmlns:inkscape="http://www.inkscape.org/namespaces/inkscape"
   width="11.940646mm"
   height="12.467167mm"
   viewBox="0 0 11.940646 12.467167"
   version="1.1"
   id="svg3810"
   inkscape:version="0.92.4 (5da689c313, 2019-01-14)"
   sodipodi:docname="notification.svg">
  <defs
     id="defs3804" />
  <sodipodi:namedview
     id="base"
     pagecolor="#ffffff"
     bordercolor="#666666"
     borderopacity="1.0"
     inkscape:pageopacity="0.0"
     inkscape:pageshadow="2"
     inkscape:zoom="15.839192"
     inkscape:cx="42.066939"
     inkscape:cy="12.521862"
     inkscape:document-units="mm"
     inkscape:current-layer="g3822"
     showgrid="false"
     fit-margin-top="0"
     fit-margin-left="0"
     fit-margin-right="0"
     fit-margin-bottom="0"
     inkscape:window-width="1920"
     inkscape:window-height="1017"
     inkscape:window-x="-8"
     inkscape:window-y="1072"
     inkscape:window-maximized="1" />
  <metadata
     id="metadata3807">
    <rdf:RDF>
      <cc:Work
         rdf:about="">
        <dc:format>image/svg+xml</dc:format>
        <dc:type
           rdf:resource="http://purl.org/dc/dcmitype/StillImage" />
        <dc:title></dc:title>
      </cc:Work>
    </rdf:RDF>
  </metadata>
  <g
     inkscape:label="Layer 1"
     inkscape:groupmode="layer"
     id="layer1"
     transform="translate(27.490908,-139.9937)">
    <g
       id="g3822"
       transform="matrix(0.26458333,0,0,0.26458333,-27.356027,143.27708)">
      <path
         id="path3885"
         d="m 44.610214,27.450382 c -3.6,0 -6.52,-2.92 -6.52,-6.52 V 8.1403817 c 0,-7.45999994 -5.12,-13.73 -12.03,-15.51 v -1.03 c 0,-2.2099997 -1.8,-4.0099997 -4.01,-4.0099997 -2.21,0 -4.01,1.8 -4.01,4.0099997 v 1.03 c -6.9,1.79 -12.0300001,8.05000006 -12.0300001,15.51 V 20.930382 c 0,3.6 -2.9300001,6.52 -6.5200005,6.52 v 2 H 15.880214 c 0.48,2.98 3.06,5.260001 6.18,5.260001 3.11,0 5.7,-2.280001 6.18,-5.260001 h 16.38 v -2 z m -24.57,-35.8500003 c 0,-1.1100001 0.9,-2.0099997 2.01,-2.0099997 1.11,0 2.01,0.8999996 2.01,2.0099997 v 0.64 c -0.66,-0.08 -1.33,-0.14 -2.01,-0.14 -0.68,0 -1.35,0.06 -2.01,0.14 z m 2.01,41.1100003 c -2,0 -3.68,-1.4 -4.13,-3.26 h 8.27 c -0.46,1.87 -2.13,3.26 -4.14,3.26 z m -17.0800002,-5.26 c 1.8600001,-1.56 3.0400001,-3.91 3.0400001,-6.52 V 8.1403817 c 0,-7.73999994 6.3000001,-14.04 14.0400001,-14.04 7.74,0 14.04,6.30000006 14.04,14.04 V 20.930382 c 0,2.61 1.18,4.96 3.04,6.52 z"
         inkscape:connector-curvature="0"
         style="fill:#0F5FDC" />
    </g>
  </g>
</svg>
